<svg width="80" height="80" viewBox="0 0 144 105" fill="none" xmlns="http://www.w3.org/2000/svg">
<path d="M1.02 92.94C1.02 91.4733 1.29333 90.2 1.84 89.12C2.4 88.0267 3.2 87.18 4.24 86.58C5.28 85.98 6.51333 85.68 7.94 85.68C9.36667 85.68 10.6 85.98 11.64 86.58C12.68 87.18 13.48 88.0267 14.04 89.12C14.6133 90.2 14.9 91.4667 14.9 92.92C14.9 94.4 14.6133 95.6867 14.04 96.78C13.48 97.86 12.68 98.7067 11.64 99.32C10.6 99.92 9.36667 100.22 7.94 100.22C6.51333 100.22 5.28 99.92 4.24 99.32C3.21333 98.7067 2.42 97.8533 1.86 96.76C1.3 95.6667 1.02 94.3933 1.02 92.94ZM4.28 92.94C4.28 94.3933 4.58 95.5333 5.18 96.36C5.79333 97.1733 6.71333 97.58 7.94 97.58C9.14 97.58 10.0533 97.1733 10.68 96.36C11.3067 95.5333 11.62 94.3933 11.62 92.94C11.62 91.4733 11.3067 90.34 10.68 89.54C10.0667 88.7267 9.15333 88.32 7.94 88.32C6.71333 88.32 5.79333 88.7267 5.18 89.54C4.58 90.34 4.28 91.4733 4.28 92.94ZM18.1184 100V92.54C18.1184 92.1 18.1051 91.6533 18.0784 91.2C18.0651 90.7467 18.0318 90.3 17.9784 89.86H20.8784L21.2184 92.82H20.7584C20.8918 92.1 21.1051 91.5067 21.3984 91.04C21.7051 90.5733 22.0784 90.2267 22.5184 90C22.9718 89.7733 23.4851 89.66 24.0584 89.66C24.3118 89.66 24.5118 89.6733 24.6584 89.7C24.8051 89.7133 24.9518 89.7467 25.0984 89.8L25.0784 92.46C24.7984 92.34 24.5584 92.2667 24.3584 92.24C24.1718 92.2 23.9318 92.18 23.6384 92.18C23.0784 92.18 22.6118 92.2867 22.2384 92.5C21.8784 92.7133 21.6051 93.0267 21.4184 93.44C21.2451 93.8533 21.1584 94.3533 21.1584 94.94V100H18.1184ZM38.7456 100.22C37.4256 100.22 36.4323 99.8933 35.7656 99.24C35.099 98.5733 34.7656 97.58 34.7656 96.26V92.12H32.8456V89.86H34.7656V87.38L37.7856 86.64V89.86H40.3856V92.12H37.7856V96.1C37.7856 96.74 37.919 97.18 38.1856 97.42C38.4523 97.66 38.7923 97.78 39.2056 97.78C39.459 97.78 39.6656 97.7667 39.8256 97.74C39.999 97.7 40.179 97.6467 40.3656 97.58V99.92C40.1123 100.027 39.8456 100.1 39.5656 100.14C39.2856 100.193 39.0123 100.22 38.7456 100.22ZM42.9153 100V92.54C42.9153 92.1 42.902 91.6533 42.8753 91.2C42.862 90.7467 42.8286 90.3 42.7753 89.86H45.6753L46.0153 92.82H45.5553C45.6886 92.1 45.902 91.5067 46.1953 91.04C46.502 90.5733 46.8753 90.2267 47.3153 90C47.7686 89.7733 48.282 89.66 48.8553 89.66C49.1086 89.66 49.3086 89.6733 49.4553 89.7C49.602 89.7133 49.7486 89.7467 49.8953 89.8L49.8753 92.46C49.5953 92.34 49.3553 92.2667 49.1553 92.24C48.9686 92.2 48.7286 92.18 48.4353 92.18C47.8753 92.18 47.4086 92.2867 47.0353 92.5C46.6753 92.7133 46.402 93.0267 46.2153 93.44C46.042 93.8533 45.9553 94.3533 45.9553 94.94V100H42.9153ZM52.6634 104.54L51.9634 102.18C52.5901 102.06 53.1168 101.92 53.5434 101.76C53.9834 101.6 54.3434 101.387 54.6234 101.12C54.9034 100.867 55.1301 100.533 55.3034 100.12L55.8034 98.94L55.7234 100.1L51.3234 89.86H54.5034L57.4034 97.2H56.7834L59.7234 89.86H62.7234L58.1434 100.4C57.8101 101.16 57.4501 101.787 57.0634 102.28C56.6901 102.787 56.2834 103.187 55.8434 103.48C55.4034 103.773 54.9168 104 54.3834 104.16C53.8634 104.32 53.2901 104.447 52.6634 104.54ZM76.7041 100.22C75.5707 100.22 74.5107 100.08 73.5241 99.8C72.5374 99.52 71.6974 99.1333 71.0041 98.64L71.9241 96.2C72.3774 96.5067 72.8574 96.7667 73.3641 96.98C73.8707 97.1933 74.4041 97.36 74.9641 97.48C75.5241 97.5867 76.1107 97.64 76.7241 97.64C77.6841 97.64 78.3641 97.4933 78.7641 97.2C79.1774 96.9067 79.3841 96.5333 79.3841 96.08C79.3841 95.6667 79.2441 95.3533 78.9641 95.14C78.6974 94.9133 78.2041 94.72 77.4841 94.56L75.1241 94.08C73.8307 93.8133 72.8641 93.36 72.2241 92.72C71.5841 92.08 71.2641 91.2267 71.2641 90.16C71.2641 89.2533 71.5041 88.4667 71.9841 87.8C72.4641 87.1333 73.1374 86.6133 74.0041 86.24C74.8841 85.8667 75.9107 85.68 77.0841 85.68C78.0841 85.68 79.0174 85.82 79.8841 86.1C80.7507 86.38 81.4641 86.78 82.0241 87.3L81.1041 89.58C80.5574 89.14 79.9441 88.8133 79.2641 88.6C78.5974 88.3733 77.8507 88.26 77.0241 88.26C76.1574 88.26 75.4907 88.4133 75.0241 88.72C74.5707 89.0267 74.3441 89.4467 74.3441 89.98C74.3441 90.38 74.4841 90.7067 74.7641 90.96C75.0441 91.2 75.5374 91.3933 76.2441 91.54L78.5641 92C79.8841 92.2667 80.8641 92.7133 81.5041 93.34C82.1441 93.9667 82.4641 94.8 82.4641 95.84C82.4641 96.72 82.2241 97.4867 81.7441 98.14C81.2774 98.7933 80.6107 99.3067 79.7441 99.68C78.8907 100.04 77.8774 100.22 76.7041 100.22ZM90.6681 100.22C88.9081 100.22 87.5348 99.7467 86.5481 98.8C85.5615 97.8533 85.0681 96.5667 85.0681 94.94C85.0681 93.8867 85.2748 92.9667 85.6881 92.18C86.1148 91.3933 86.7015 90.78 87.4481 90.34C88.2081 89.8867 89.0948 89.66 90.1081 89.66C91.1081 89.66 91.9415 89.8733 92.6081 90.3C93.2881 90.7267 93.7948 91.3267 94.1281 92.1C94.4748 92.86 94.6481 93.7467 94.6481 94.76V95.46H87.5481V93.96H92.4481L92.1081 94.24C92.1081 93.4 91.9348 92.7667 91.5881 92.34C91.2548 91.9 90.7681 91.68 90.1281 91.68C89.4215 91.68 88.8748 91.94 88.4881 92.46C88.1148 92.98 87.9281 93.7267 87.9281 94.7V95.02C87.9281 96.0067 88.1681 96.74 88.6481 97.22C89.1415 97.7 89.8481 97.94 90.7681 97.94C91.3148 97.94 91.8281 97.8733 92.3081 97.74C92.8015 97.5933 93.2681 97.3667 93.7081 97.06L94.5481 99.06C94.0415 99.4333 93.4548 99.72 92.7881 99.92C92.1348 100.12 91.4281 100.22 90.6681 100.22ZM101.504 100.22C100.624 100.22 99.8509 100.007 99.1842 99.58C98.5176 99.1533 97.9976 98.5467 97.6242 97.76C97.2509 96.9733 97.0642 96.0267 97.0642 94.92C97.0642 93.8267 97.2509 92.8867 97.6242 92.1C97.9976 91.3133 98.5176 90.7133 99.1842 90.3C99.8509 89.8733 100.624 89.66 101.504 89.66C102.318 89.66 103.044 89.86 103.684 90.26C104.338 90.6467 104.764 91.1733 104.964 91.84H104.744L104.984 89.86H107.884C107.844 90.3 107.804 90.7467 107.764 91.2C107.738 91.64 107.724 92.0733 107.724 92.5V100H104.724L104.704 98.1H104.944C104.731 98.74 104.304 99.2533 103.664 99.64C103.024 100.027 102.304 100.22 101.504 100.22ZM102.424 97.94C103.118 97.94 103.678 97.6933 104.104 97.2C104.531 96.7067 104.744 95.9467 104.744 94.92C104.744 93.8933 104.531 93.14 104.104 92.66C103.678 92.18 103.118 91.94 102.424 91.94C101.731 91.94 101.171 92.18 100.744 92.66C100.318 93.14 100.104 93.8933 100.104 94.92C100.104 95.9467 100.311 96.7067 100.724 97.2C101.151 97.6933 101.718 97.94 102.424 97.94ZM111.181 100V92.54C111.181 92.1 111.168 91.6533 111.141 91.2C111.128 90.7467 111.094 90.3 111.041 89.86H113.941L114.281 92.82H113.821C113.954 92.1 114.168 91.5067 114.461 91.04C114.768 90.5733 115.141 90.2267 115.581 90C116.034 89.7733 116.548 89.66 117.121 89.66C117.374 89.66 117.574 89.6733 117.721 89.7C117.868 89.7133 118.014 89.7467 118.161 89.8L118.141 92.46C117.861 92.34 117.621 92.2667 117.421 92.24C117.234 92.2 116.994 92.18 116.701 92.18C116.141 92.18 115.674 92.2867 115.301 92.5C114.941 92.7133 114.668 93.0267 114.481 93.44C114.308 93.8533 114.221 94.3533 114.221 94.94V100H111.181ZM125.128 100.22C124.048 100.22 123.101 100.007 122.288 99.58C121.474 99.1533 120.848 98.54 120.408 97.74C119.968 96.94 119.748 95.9933 119.748 94.9C119.748 93.7933 119.968 92.8533 120.408 92.08C120.861 91.2933 121.488 90.6933 122.288 90.28C123.101 89.8667 124.048 89.66 125.128 89.66C125.808 89.66 126.468 89.76 127.108 89.96C127.761 90.16 128.294 90.44 128.708 90.8L127.828 92.88C127.494 92.5733 127.108 92.3467 126.668 92.2C126.241 92.04 125.828 91.96 125.428 91.96C124.614 91.96 123.981 92.2133 123.528 92.72C123.074 93.2267 122.848 93.96 122.848 94.92C122.848 95.88 123.074 96.6133 123.528 97.12C123.981 97.6267 124.614 97.88 125.428 97.88C125.814 97.88 126.221 97.8067 126.648 97.66C127.088 97.5133 127.481 97.2933 127.828 97L128.708 99.06C128.281 99.42 127.741 99.7067 127.088 99.92C126.448 100.12 125.794 100.22 125.128 100.22ZM131.424 100V85.28H134.444V91.76H134.144C134.464 91.08 134.937 90.56 135.564 90.2C136.19 89.84 136.91 89.66 137.724 89.66C138.91 89.66 139.797 90.0067 140.384 90.7C140.97 91.38 141.264 92.4267 141.264 93.84V100H138.244V93.98C138.244 93.2733 138.11 92.7667 137.844 92.46C137.59 92.1533 137.19 92 136.644 92C135.977 92 135.444 92.2067 135.044 92.62C134.644 93.0333 134.444 93.5867 134.444 94.28V100H131.424Z" fill="white"/>
<g clip-path="url(#clip0_0_1)">
<path d="M122.55 27.9501H133V36.5001H122.55V27.9501Z" fill="white"/>
</g>
<path d="M25.8838 36.5H3.08472V3.24072H25.8838V9.89722H9.74121V16.5537H20.6653V23.2102H9.74121V29.8435H25.8838V36.5Z" fill="white"/>
<path d="M33.9263 13.2139C33.9263 11.8377 34.1892 10.5466 34.7149 9.34058C35.2406 8.13452 35.9519 7.08309 36.8487 6.18628C37.761 5.27401 38.8201 4.55501 40.0262 4.0293C41.2322 3.50358 42.5233 3.24072 43.8995 3.24072H59.1607V9.89722H43.8995C43.4356 9.89722 43.0027 9.98226 42.6006 10.1523C42.1986 10.3224 41.843 10.5621 41.5337 10.8713C41.24 11.1651 41.008 11.513 40.8379 11.915C40.6679 12.3171 40.5828 12.75 40.5828 13.2139C40.5828 13.6777 40.6679 14.1184 40.8379 14.5359C41.008 14.9379 41.24 15.2935 41.5337 15.6028C41.843 15.8966 42.1986 16.1285 42.6006 16.2986C43.0027 16.4687 43.4356 16.5537 43.8995 16.5537H50.556C51.9321 16.5537 53.2232 16.8166 54.4292 17.3423C55.6508 17.8525 56.7099 18.5638 57.6067 19.4761C58.519 20.3729 59.2303 21.432 59.7405 22.6536C60.2662 23.8596 60.5291 25.1507 60.5291 26.5269C60.5291 27.903 60.2662 29.1941 59.7405 30.4001C59.2303 31.6062 58.519 32.6654 57.6067 33.5776C56.7099 34.4744 55.6508 35.1857 54.4292 35.7114C53.2232 36.2371 51.9321 36.5 50.556 36.5H35.7818V29.8435H50.556C51.0198 29.8435 51.4528 29.7585 51.8548 29.5884C52.2568 29.4183 52.6047 29.1864 52.8985 28.8926C53.2077 28.5833 53.4474 28.2277 53.6175 27.8257C53.7876 27.4237 53.8726 26.9907 53.8726 26.5269C53.8726 26.063 53.7876 25.63 53.6175 25.228C53.4474 24.826 53.2077 24.4781 52.8985 24.1843C52.6047 23.8751 52.2568 23.6354 51.8548 23.4653C51.4528 23.2952 51.0198 23.2102 50.556 23.2102H43.8995C42.5233 23.2102 41.2322 22.9473 40.0262 22.4216C38.8201 21.8959 37.761 21.1846 36.8487 20.2878C35.9519 19.3756 35.2406 18.3164 34.7149 17.1103C34.1892 15.8888 33.9263 14.59 33.9263 13.2139Z" fill="white"/>
<path d="M97.0763 33.137C95.5301 34.4512 93.806 35.464 91.9042 36.1753C90.0023 36.8711 88.0231 37.219 85.9667 37.219C84.3895 37.219 82.8665 37.0103 81.3976 36.5928C79.9441 36.1908 78.5834 35.6186 77.3155 34.8765C76.0476 34.1188 74.888 33.222 73.8365 32.186C72.7851 31.1346 71.8883 29.9749 71.1461 28.707C70.4039 27.4237 69.8241 26.0475 69.4066 24.5786C69.0046 23.1097 68.8036 21.5867 68.8036 20.0095C68.8036 18.4324 69.0046 16.9171 69.4066 15.4636C69.8241 14.0102 70.4039 12.6495 71.1461 11.3816C71.8883 10.0982 72.7851 8.93856 73.8365 7.90259C74.888 6.85116 76.0476 5.95435 77.3155 5.21216C78.5834 4.46997 79.9441 3.89787 81.3976 3.49585C82.8665 3.07837 84.3895 2.86963 85.9667 2.86963C88.0231 2.86963 90.0023 3.22526 91.9042 3.93652C93.806 4.63232 95.5301 5.63737 97.0763 6.95166L93.5973 12.75C92.5922 11.7295 91.4326 10.9332 90.1183 10.3611C88.804 9.77352 87.4201 9.47974 85.9667 9.47974C84.5132 9.47974 83.1448 9.75806 81.8614 10.3147C80.5935 10.8713 79.4802 11.629 78.5216 12.5876C77.5629 13.5308 76.8053 14.6441 76.2486 15.9275C75.692 17.1954 75.4137 18.5561 75.4137 20.0095C75.4137 21.4784 75.692 22.8546 76.2486 24.1379C76.8053 25.4213 77.5629 26.5423 78.5216 27.501C79.4802 28.4596 80.5935 29.2173 81.8614 29.7739C83.1448 30.3306 84.5132 30.6089 85.9667 30.6089C86.8016 30.6089 87.6134 30.5084 88.402 30.3074C89.1905 30.1064 89.9405 29.828 90.6517 29.4724V20.0095H97.0763V33.137Z" fill="white"/>
<path d="M114.559 36.5H107.902V3.24072H114.559V36.5Z" fill="white"/>
<defs>
<clipPath id="clip0_0_1">
<rect width="133" height="39.9" fill="white" transform="translate(0 0.400024)"/>
</clipPath>
</defs>
</svg>
